<?xml version="1.0" encoding="utf-8"?>
<!-- Generator: Adobe Illustrator 24.1.1, SVG Export Plug-In . SVG Version: 6.00 Build 0)  -->
<svg version="1.1" id="Capa_1" xmlns="http://www.w3.org/2000/svg" xmlns:xlink="http://www.w3.org/1999/xlink" x="0px" y="0px"
	 viewBox="0 0 236 217" style="enable-background:new 0 0 236 217;" xml:space="preserve">
<style type="text/css">
	.st0{fill:#376EB0;}
</style>
<g>
	<g>
		<path class="st0" d="M62.7,26.5c9.1,1.7,18.2,2.9,27.5,3.6c0,5-0.9,11.2-2.8,18.6c-27,0-55.2-2.5-84.4-7.5
			c0-6.7,0.6-13.1,1.9-19.2c11.7,0.7,23.2,1.5,34.7,2.2c0.4-6.7,1.2-12.9,2.5-18.6c3.3-0.7,6.5-1.1,9.4-1.1c3.7,0,6.8,0.4,9.4,1.1
			C61.8,13.8,62.3,20.8,62.7,26.5z M78.2,141.2c3,17.6,4.4,35.7,4.4,54.4c-18.5,4.3-38.7,6.8-60.5,7.5c-4.3-11.7-6.9-30.1-8.1-55.3
			C33.7,143.4,55.1,141.2,78.2,141.2z M16,101.2c15.2,0.7,29.6,2.2,43.3,4.4c-0.4,2.8-0.7,5.7-1.1,8.9c-0.4,4.3-1.1,7.6-2.2,10
			c-6.9,0-13.8-0.8-20.8-2.5c-7-0.7-14-1.8-20.8-3.3C14.4,112.8,14.9,107,16,101.2z M49.4,66.8c8.5,0,15.2,0,20,0
			c0.7,2.8,1.1,5.7,1.1,8.9c0,3-0.2,5.8-0.6,8.6c-4.4,0.7-11.7,1.1-21.7,1.1c-9.3,0-16.1-0.4-20.6-1.1c-1.1-2-1.7-4.5-1.7-7.5
			c0-3.9,0.4-6.8,1.1-8.9C30.3,67.2,37.7,66.8,49.4,66.8z M38,185.6l26.1-3.3L61,159l-26.7,2.2L38,185.6z M117.7,150.1
			c6.5,2.2,13.4,4.7,20.8,7.5c-1.9,10.6-4.5,21.3-8.1,32.2c15.9,2.2,81.4,4.5,98.5,6.9c0,5-0.9,10.6-2.8,16.7
			c-22.6-1.5-94.3-4.9-117.1-10.3c2.4-11.7,5.1-22.7,8.1-33c-9.4-3.7-17.2-7-23.3-10c4.6-11.3,3.3-7.9,7.2-17.4
			C101,142.8,116.4,149.6,117.7,150.1z M100.4,69c9.3,2,19.4,5.4,30.5,10c-1.1,5-3.1,10.1-5.8,15.3c-10.7-2-20.9-5.4-30.5-10
			C96.5,78.5,98.4,73.5,100.4,69z M171.5,61c-1.9,3.9-4.2,6.9-6.9,8.9c-10.9-5.9-20.6-13.3-29.2-22.2c2.4-4.3,5.2-8.3,8.3-12.2
			c9.6,4.6,18.8,11,27.5,19.2c-0.4-12-0.7-23.5-0.8-34.4c3-0.7,5.8-1.1,8.6-1.1c2.8,0,5.6,0,8.6,0c2.2,19.8,4,39.8,5.3,60
			c12.2,0.7,24.3,1.5,36.1,2.2c0,4.4-0.7,9.5-2.2,15.3c-10.9,0-21.8-0.4-32.8-1.1c0.2,3.9,0.4,7.6,0.6,11.1
			c9.6,3.9,19.8,8.7,30.5,14.4c-1.7,3.9-4.1,8-7.2,12.2c-7.8-2.2-15.3-4.7-22.5-7.5c0.2,10.4,0.4,20.3,0.6,29.7
			c-1.9,0.7-4.4,1.1-7.8,1.1c-3.5,0-6.2,0-8.1,0c-1.3-10.9-2.5-21.6-3.6-31.9c-0.4,0-0.7,0.4-0.8,1.1c-3.7,3.5-7.6,7.2-11.7,11.1
			c-4.6,5-9.3,9.4-13.9,13.3c-4.1-3.9-7.4-7.6-10-11.1c11.1-13.5,22.5-26.1,34.2-37.8c-0.2-2.4-0.4-4.7-0.6-6.9
			c-10.4,0-20.9-0.6-31.7-1.9c0-6.1,0.6-11.3,1.7-15.6c9.6,0,19.3,0.4,28.9,1.1C172.3,72,171.9,66.3,171.5,61z M215.4,31.2
			c4.1,1.5,8.3,2.9,12.8,4.2c-2.4,14.3-7.2,25.5-14.4,33.6c-3.3,0-7.5-1.1-12.5-3.3C203.3,53.6,208,42.2,215.4,31.2z"/>
	</g>
	<g>
		<path class="st0" d="M96.6,105.3c9.3,2,19.4,5.4,30.5,10c-1.1,5-3.1,10.1-5.8,15.3c-10.7-2-20.9-5.4-30.5-10
			C92.6,114.8,94.6,109.7,96.6,105.3z"/>
	</g>
</g>
</svg>
